<?xml version="1.0" standalone="no"?>
<!DOCTYPE svg PUBLIC "-//W3C//DTD SVG 20010904//EN"
 "http://www.w3.org/TR/2001/REC-SVG-20010904/DTD/svg10.dtd">
<svg version="1.0" xmlns="http://www.w3.org/2000/svg"
 width="256.000000pt" height="256.000000pt" viewBox="0 0 256.000000 256.000000"
 preserveAspectRatio="xMidYMid meet">
<metadata>
Created by potrace 1.11, written by Peter Selinger 2001-2013
</metadata>
<g transform="translate(0.000000,256.000000) scale(0.100000,-0.100000)"
fill="#000000" stroke="none">
<path d="M1140 2554 c-494 -63 -904 -391 -1068 -854 -52 -149 -66 -237 -66
-420 0 -228 36 -386 134 -580 111 -221 335 -446 552 -556 73 -37 88 -41 88
-21 0 21 59 139 69 135 4 -1 36 -35 69 -74 55 -64 61 -76 59 -110 -2 -35 1
-39 21 -39 16 0 29 11 44 36 l21 37 -119 138 c-330 385 -436 571 -460 806 -11
111 25 290 81 398 l18 34 17 -70 c10 -38 34 -105 53 -149 29 -66 34 -88 30
-127 -17 -147 69 -337 266 -587 l66 -83 61 66 c34 36 64 66 67 66 3 0 33 -35
66 -77 l60 -77 -60 -63 -60 -63 21 -30 22 -31 67 61 c99 86 97 84 70 122 -64
91 -159 212 -311 390 -92 108 -191 230 -221 270 -236 317 -282 702 -122 1023
24 50 53 101 63 113 l18 24 48 -115 c41 -99 46 -118 36 -138 -18 -32 -47 -138
-55 -200 l-8 -54 79 75 c73 69 203 170 220 170 4 0 4 -55 0 -122 l-7 -123 -74
-68 c-77 -70 -175 -186 -175 -207 0 -23 78 -176 121 -237 46 -64 360 -441 369
-442 8 -1 152 195 213 289 30 47 72 120 93 163 21 42 41 77 45 77 10 0 58
-124 74 -193 l15 -62 -37 -60 c-49 -81 -144 -214 -216 -303 l-59 -72 29 -45
c15 -25 31 -45 35 -45 13 0 140 147 182 210 90 138 110 235 82 398 -9 52 -29
127 -45 167 -29 75 -99 183 -143 221 -21 18 -26 35 -37 134 -6 62 -10 114 -7
117 7 7 107 -46 149 -79 l37 -30 0 49 c0 90 -26 189 -82 315 l-30 66 52 97 52
96 38 -53 c139 -195 199 -481 159 -751 -10 -69 -9 -80 15 -153 39 -124 50
-190 50 -319 1 -132 -9 -175 -70 -296 -58 -117 -148 -221 -409 -474 -140 -136
-255 -252 -255 -256 0 -22 49 -6 79 25 l34 35 25 -31 c23 -28 30 -30 74 -26
27 3 51 8 55 12 4 4 -3 39 -15 79 l-21 72 75 75 c61 61 76 72 84 60 6 -8 25
-62 44 -120 19 -57 39 -106 45 -108 6 -2 57 19 113 46 360 173 618 505 704
902 26 119 26 381 0 500 -55 255 -176 477 -358 657 -180 176 -383 288 -628
344 -83 19 -331 33 -410 23z"/>
</g>
</svg>
